<svg xmlns="http://www.w3.org/2000/svg">
  <symbol id="ask" viewBox="0 0 24 24" fill="none" stroke="currentColor" stroke-width="1.8" stroke-linecap="round" stroke-linejoin="round"><path d="m5 9-1-6 6 4h4l6-4-1 6 2 5-9 7-9-7z"/><path d="m8 12 1 1m7-1-1 1m-5 4 2 2 2-2"/></symbol>
  <symbol id="calculator" viewBox="0 0 24 24" fill="none" stroke="currentColor" stroke-width="1.8" stroke-linecap="round" stroke-linejoin="round"><rect x="5" y="2" width="14" height="20" rx="4"/><path d="M8 6h8M8 11h1m6 0h1m-8 4h1m6 0h1m-8 4h1m6 0h1"/></symbol>
  <symbol id="learn" viewBox="0 0 24 24" fill="none" stroke="currentColor" stroke-width="1.8" stroke-linecap="round" stroke-linejoin="round"><path d="M12 6c-3-3-7-3-10-2v15c3-1 7-1 10 2 3-3 7-3 10-2V4c-3-1-7-1-10 2Zm0 0v15"/></symbol>
  <symbol id="study" viewBox="0 0 24 24" fill="none" stroke="currentColor" stroke-width="1.8" stroke-linecap="round" stroke-linejoin="round"><rect x="6" y="6" width="15" height="16" rx="3"/><path d="M3 17V5a3 3 0 0 1 3-3h11M10 11h7m-7 4h5"/></symbol>
  <symbol id="extension" viewBox="0 0 24 24" fill="none" stroke="currentColor" stroke-width="1.8" stroke-linecap="round" stroke-linejoin="round"><path d="M9 3H4v6a3 3 0 1 1 0 6v6h6a3 3 0 1 1 6 0h5v-6a3 3 0 1 1 0-6V3h-6a3 3 0 1 0-6 0Z"/></symbol>
  <symbol id="settings" viewBox="0 0 24 24" fill="none" stroke="currentColor" stroke-width="1.8" stroke-linecap="round" stroke-linejoin="round"><path d="m9 3-1 3-3 1-2 4 2 3v4l4 3 3-1 3 1 4-3v-4l2-3-2-4-3-1-1-3z"/><circle cx="12" cy="12" r="3"/></symbol>
  <symbol id="history" viewBox="0 0 24 24" fill="none" stroke="currentColor" stroke-width="1.8" stroke-linecap="round" stroke-linejoin="round"><path d="M3 11a9 9 0 1 1 2 7M3 4v7h7m2-5v6l4 2"/></symbol>
</svg>
